PathFileType   4   (X/Y/Z)
DataRate	CameraRate	NumFrames	NumMarkers	Units	OrigDataRate	OrigDataStartFrame	OrigNumFrames
120.0	120.0	11	37	mm	120.0	18	136
Frame#	Time	midhip	hip_r	hip_l	knee_r	knee_l	ankle_r	ankle_l	midasis	asis_r	asis_l	psis_r	psis_l	epicondLat_r	epicondLat_l	epicondMed_r	epicondMed_l	malleolusLat_r	malleolusLat_l	malleolusMedv_r	malleolusMedv_l	neck	subclavicle_r	subclavicle_l	sternalnotch	xyphoidprocess	thighwand_r	thighwand_l	upperleg1_r	upperleg1_l	upperleg2_r	upperleg2_l	shankwand_r	shankwand_l	lowerleg1_r	lowerleg1_l	toe_r	toe_l
 	 	X1	Y1	Z1	X2	Y2	Z2	X3	Y3	Z3	X4	Y4	Z4	X5	Y5	Z5	X6	Y6	Z6	X7	Y7	Z7	X8	Y8	Z8	X9	Y9	Z9	X10	Y10	Z10	X11	Y11	Z11	X12	Y12	Z12	X13	Y13	Z13	X14	Y14	Z14	X15	Y15	Z15	X16	Y16	Z16	X17	Y17	Z17	X18	Y18	Z18	X19	Y19	Z19	X20	Y20	Z20	X21	Y21	Z21	X22	Y22	Z22	X23	Y23	Z23	X24	Y24	Z24	X25	Y25	Z25	X26	Y26	Z26	X27	Y27	Z27	X28	Y28	Z28	X29	Y29	Z29	X30	Y30	Z30	X31	Y31	Z31	X32	Y32	Z32	X33	Y33	Z33	X34	Y34	Z34	X35	Y35	Z35	X36	Y36	Z36	X37	Y37	Z37

	18	0.37500	1469.630	774.776	-279.914	1445.232	777.368	-202.111	1455.871	780.526	-357.344	1571.712	405.262	-163.106	1451.909	425.122	-326.569	1326.293	157.326	-196.450	1433.390	58.630	-302.099	1579.917	847.449	-269.468	1571.460	844.939	-146.087	1588.373	849.959	-392.848	1336.383	925.042	-251.906	1337.038	925.765	-306.320	1572.818	413.086	-92.044	1455.338	418.923	-397.718	1592.594	402.095	-229.493	1434.914	420.063	-249.554	1317.910	160.590	-159.016	1417.493	57.021	-338.223	1338.069	164.757	-232.075	1431.504	76.304	-262.006	1387.978	1351.715	-278.293	1511.497	1280.033	-235.106	1514.660	1281.588	-316.454	1496.438	1276.287	-288.588	1545.684	1200.733	-287.020	1680.755	619.302	-100.425	1636.120	594.558	-336.595	1638.679	623.027	-123.221	1590.845	612.003	-348.583	1644.993	545.947	-123.028	1568.781	542.137	-342.922	1484.217	199.461	-157.855	1419.095	158.732	-411.541	1456.996	237.915	-167.713	1421.681	173.530	-365.864	1394.189	78.875	-192.196	1532.830	47.485	-315.017
	19	0.38333	1475.514	775.026	-280.017	1451.260	777.816	-202.180	1461.603	780.392	-357.443	1584.906	407.265	-164.729	1455.199	424.969	-326.358	1347.686	151.648	-196.797	1433.858	58.748	-301.993	1585.665	847.930	-270.062	1577.445	845.882	-146.656	1593.884	849.977	-393.467	1342.295	924.900	-252.268	1342.911	925.507	-306.700	1586.513	415.027	-93.670	1458.203	418.691	-397.518	1605.848	404.719	-231.738	1439.582	419.658	-248.087	1339.380	154.656	-159.324	1417.859	57.280	-338.078	1358.684	159.546	-232.472	1432.253	76.589	-261.903	1394.734	1351.796	-278.205	1517.728	1280.199	-234.809	1521.176	1281.599	-315.815	1502.880	1276.296	-288.462	1551.993	1200.759	-286.291	1690.484	623.082	-102.854	1640.900	593.183	-337.504	1647.933	626.101	-125.196	1595.429	610.949	-348.967	1656.027	549.638	-125.357	1572.896	540.830	-343.055	1504.121	199.059	-159.055	1420.061	158.860	-411.422	1475.251	236.208	-168.526	1422.864	173.677	-365.915	1419.391	76.970	-192.566	1533.038	47.299	-314.877
	20	0.39167	1481.359	775.261	-280.120	1457.283	778.271	-202.249	1467.316	780.208	-357.542	1597.783	409.292	-166.482	1458.463	424.860	-326.141	1369.575	145.682	-197.151	1434.347	58.860	-301.899	1591.410	848.370	-270.693	1583.435	846.830	-147.247	1599.385	849.910	-394.138	1348.223	924.743	-252.540	1348.775	925.253	-306.993	1599.854	416.969	-95.425	1461.039	418.506	-397.312	1618.930	407.449	-233.771	1444.086	419.337	-246.991	1361.332	148.454	-159.646	1418.236	57.534	-337.940	1380.183	153.866	-232.876	1433.630	76.580	-261.874	1401.507	1351.762	-278.186	1523.984	1280.081	-234.791	1527.738	1281.847	-315.535	1509.259	1276.290	-288.334	1558.402	1200.858	-286.383	1699.938	626.654	-105.245	1645.687	591.812	-338.424	1657.388	629.686	-127.156	1599.853	609.742	-349.778	1667.001	552.919	-127.481	1577.108	539.620	-343.396	1524.250	198.672	-160.226	1421.001	159.027	-411.300	1494.388	234.539	-169.547	1424.434	173.959	-365.672	1444.889	74.929	-192.796	1533.250	47.090	-314.748
	21	0.40000	1487.174	775.457	-280.226	1463.304	778.708	-202.318	1473.017	779.975	-357.638	1610.314	411.309	-168.341	1461.678	424.802	-325.922	1391.947	139.500	-197.518	1434.825	58.973	-301.821	1597.166	848.740	-271.345	1589.443	847.732	-147.845	1604.889	849.748	-394.845	1354.168	924.581	-252.714	1354.633	925.010	-307.192	1612.819	418.883	-97.287	1463.831	418.377	-397.100	1629.266	410.418	-236.038	1448.970	418.101	-247.080	1383.747	142.059	-159.989	1418.599	57.793	-337.815	1402.300	148.127	-233.303	1434.284	76.847	-261.812	1407.946	1351.733	-278.227	1530.424	1279.654	-234.814	1533.983	1281.877	-315.716	1515.556	1276.255	-288.187	1564.628	1200.689	-287.020	1709.131	629.978	-107.601	1650.449	590.437	-339.326	1666.068	633.201	-128.813	1604.434	608.387	-350.245	1676.953	555.448	-129.722	1581.592	538.557	-344.041	1544.554	198.329	-161.356	1421.913	159.243	-411.172	1514.000	233.024	-170.560	1425.518	174.282	-365.684	1470.661	72.808	-192.883	1533.461	46.872	-314.632
	22	0.40833	1492.979	775.594	-280.335	1469.335	779.099	-202.381	1478.715	779.699	-357.726	1622.466	413.283	-170.284	1464.826	424.801	-325.700	1414.789	133.173	-197.905	1435.264	59.101	-301.755	1602.949	849.019	-272.000	1595.488	848.542	-148.431	1610.410	849.496	-395.569	1360.134	924.421	-252.783	1360.493	924.778	-307.292	1625.385	420.739	-99.233	1466.571	418.309	-396.883	1639.050	411.355	-236.947	1453.066	416.913	-249.058	1406.603	135.540	-160.360	1418.927	58.068	-337.704	1424.658	141.656	-233.732	1433.861	77.212	-261.593	1414.449	1351.555	-278.192	1536.909	1279.279	-234.530	1539.945	1281.739	-315.929	1521.789	1276.167	-288.002	1570.680	1200.428	-287.426	1718.077	633.026	-109.931	1655.151	589.050	-340.184	1674.573	634.432	-131.092	1609.526	607.324	-350.378	1685.995	557.935	-131.670	1586.074	537.701	-345.140	1564.978	198.062	-162.432	1422.793	159.515	-411.032	1532.848	231.328	-171.845	1425.908	174.375	-365.719	1496.685	70.672	-192.833	1533.672	46.658	-314.534
	23	0.41667	1498.806	775.661	-280.444	1475.396	779.420	-202.430	1484.424	779.385	-357.797	1634.197	415.183	-172.290	1467.899	424.850	-325.478	1438.085	126.770	-198.317	1435.653	59.256	-301.698	1608.776	849.195	-272.641	1601.591	849.223	-148.991	1615.961	849.167	-396.291	1366.122	924.265	-252.734	1366.361	924.554	-307.285	1637.522	422.511	-101.244	1469.259	418.297	-396.664	1647.426	414.192	-238.727	1456.948	416.959	-249.766	1429.875	128.964	-160.767	1419.213	58.370	-337.603	1447.531	134.732	-234.171	1433.984	77.207	-261.410	1420.982	1351.371	-277.736	1543.063	1279.201	-234.316	1546.016	1281.738	-315.708	1527.993	1276.012	-287.768	1576.732	1200.382	-287.320	1726.794	635.772	-112.242	1659.763	587.647	-340.975	1683.130	636.913	-132.430	1614.397	606.495	-351.041	1695.132	560.756	-133.611	1590.530	537.144	-345.920	1585.469	197.898	-163.440	1423.641	159.841	-410.881	1551.543	229.453	-173.278	1426.685	174.487	-365.362	1522.945	68.586	-192.663	1533.878	46.460	-314.460
	24	0.42500	1504.688	775.650	-280.539	1481.505	779.651	-202.448	1490.150	779.042	-357.836	1645.466	416.978	-174.338	1470.896	424.939	-325.258	1461.812	120.363	-198.756	1435.990	59.448	-301.642	1614.659	849.262	-273.249	1607.775	849.747	-149.507	1621.543	848.777	-396.991	1372.132	924.110	-252.554	1372.247	924.330	-307.166	1649.198	424.172	-103.299	1471.899	418.335	-396.445	1658.445	417.014	-241.653	1460.036	418.679	-248.091	1453.535	122.397	-161.212	1419.455	58.710	-337.507	1471.149	128.044	-234.656	1435.134	77.293	-261.450	1427.111	1351.422	-277.309	1548.919	1278.897	-234.101	1552.307	1281.628	-315.176	1534.176	1275.801	-287.497	1582.724	1200.147	-286.977	1735.296	638.194	-114.540	1664.268	586.231	-341.681	1691.067	639.614	-133.727	1618.711	605.253	-352.315	1704.911	563.397	-135.989	1594.624	536.612	-346.044	1605.972	197.869	-164.369	1424.455	160.216	-410.720	1570.801	227.948	-174.681	1428.097	174.713	-365.276	1549.414	66.616	-192.399	1534.078	46.284	-314.418
	25	0.43333	1510.638	775.558	-280.597	1487.679	779.779	-202.419	1495.896	778.680	-357.828	1656.235	418.643	-176.410	1473.828	425.050	-325.039	1485.936	114.034	-199.223	1436.283	59.683	-301.583	1620.607	849.221	-273.807	1614.059	850.097	-149.963	1627.155	848.346	-397.651	1378.167	923.953	-252.233	1378.159	924.101	-306.928	1660.386	425.696	-105.380	1474.501	418.408	-396.227	1667.420	419.502	-244.346	1463.273	419.824	-246.704	1477.548	115.913	-161.695	1419.657	59.091	-337.409	1495.103	121.817	-235.174	1435.850	77.731	-261.478	1432.996	1351.456	-277.216	1554.822	1278.227	-233.341	1558.659	1281.328	-314.589	1540.338	1275.566	-287.238	1588.752	1199.652	-286.499	1743.593	640.271	-116.827	1668.658	584.807	-342.292	1699.007	641.997	-135.388	1623.034	603.983	-353.136	1713.738	565.450	-138.351	1598.618	535.914	-346.104	1626.437	198.010	-165.217	1425.234	160.636	-410.555	1590.232	226.460	-175.755	1429.209	175.192	-365.413	1576.058	64.824	-192.072	1534.264	46.132	-314.416
	26	0.44167	1516.649	775.387	-280.590	1493.925	779.795	-202.324	1501.659	778.305	-357.754	1666.473	420.153	-178.486	1476.711	425.165	-324.822	1510.413	107.868	-199.715	1436.540	59.957	-301.520	1626.619	849.078	-274.300	1620.451	850.265	-150.348	1632.787	847.890	-398.252	1384.233	923.783	-251.772	1384.104	923.861	-306.569	1671.061	427.062	-107.469	1477.080	418.501	-396.010	1673.874	420.544	-245.466	1466.408	421.113	-245.700	1501.873	109.587	-162.213	1419.826	59.512	-337.307	1519.271	116.190	-235.726	1435.702	78.261	-261.327	1439.105	1351.192	-277.137	1561.005	1277.617	-232.627	1565.055	1281.102	-314.155	1546.512	1275.332	-287.046	1595.076	1199.294	-286.211	1751.693	641.979	-119.099	1672.941	583.384	-342.808	1707.075	643.075	-137.333	1627.982	603.210	-353.274	1721.502	566.744	-140.223	1602.595	535.196	-346.022	1646.814	198.355	-165.988	1425.975	161.097	-410.394	1609.851	225.019	-176.431	1429.785	175.916	-365.297	1602.826	63.263	-191.725	1534.433	46.002	-314.457
	27	0.45000	1522.704	775.147	-280.502	1500.244	779.697	-202.148	1507.433	777.923	-357.601	1676.167	421.486	-180.548	1479.569	425.267	-324.605	1535.180	101.959	-200.232	1436.773	60.264	-301.453	1632.690	848.837	-274.716	1626.953	850.253	-150.652	1638.427	847.421	-398.780	1390.334	923.587	-251.177	1390.088	923.607	-306.088	1681.213	428.246	-109.548	1479.653	418.600	-395.794	1682.120	420.239	-246.409	1469.315	422.210	-244.817	1526.459	103.499	-162.764	1419.966	59.967	-337.198	1543.867	110.683	-236.296	1434.977	78.736	-261.038	1445.693	1350.783	-276.881	1567.145	1277.298	-232.593	1571.279	1280.823	-314.249	1552.744	1275.092	-286.937	1601.199	1198.972	-286.249	1759.595	643.296	-121.350	1677.138	581.977	-343.240	1714.556	643.375	-139.508	1632.609	602.610	-353.301	1729.438	567.336	-142.143	1606.163	534.376	-345.914	1667.054	198.938	-166.700	1426.679	161.596	-410.244	1629.256	224.027	-177.287	1429.960	176.377	-365.044	1629.654	61.976	-191.406	1534.579	45.891	-314.546
	28	0.45833	1528.790	774.847	-280.320	1506.632	779.486	-201.885	1513.211	777.533	-357.363	1685.318	422.623	-182.582	1482.421	425.346	-324.389	1560.156	96.397	-200.773	1436.990	60.594	-301.384	1638.813	848.505	-275.049	1633.558	850.065	-150.877	1644.067	846.945	-399.221	1396.482	923.353	-250.466	1396.114	923.338	-305.489	1690.838	429.227	-111.602	1482.231	418.697	-395.579	1691.313	420.072	-248.466	1473.249	420.311	-245.988	1551.241	97.730	-163.343	1420.085	60.448	-337.084	1568.779	105.273	-236.860	1434.572	79.105	-260.793	1452.460	1350.658	-276.621	1573.006	1277.187	-232.710	1577.266	1280.555	-314.658	1559.031	1274.832	-286.886	1606.838	1198.640	-286.324	1767.294	644.198	-123.564	1681.278	580.596	-343.608	1721.735	643.894	-142.108	1636.364	601.718	-353.057	1737.263	567.672	-144.498	1609.731	533.470	-346.467	1687.107	199.792	-167.378	1427.350	162.133	-410.109	1648.426	223.054	-178.232	1430.290	176.535	-364.843	1656.465	60.991	-191.166	1534.700	45.795	-314.677
